<svg xmlns="http://www.w3.org/2000/svg" width="480" height="300" viewBox="0 0 480 300" fill="none">
  <defs>
    <linearGradient id="sky" x1="42" y1="0" x2="423" y2="300" gradientUnits="userSpaceOnUse"><stop stop-color="#14272C"/><stop offset=".55" stop-color="#0D1A20"/><stop offset="1" stop-color="#171B23"/></linearGradient>
    <radialGradient id="halo" cx="0" cy="0" r="1" gradientTransform="translate(240 148) rotate(90) scale(126 159)" gradientUnits="userSpaceOnUse"><stop stop-color="#64D6C4" stop-opacity=".19"/><stop offset="1" stop-color="#64D6C4" stop-opacity="0"/></radialGradient>
    <linearGradient id="gold" x1="177" y1="66" x2="308" y2="245" gradientUnits="userSpaceOnUse"><stop stop-color="#F6E5AF"/><stop offset=".45" stop-color="#D7AC5E"/><stop offset="1" stop-color="#99733D"/></linearGradient>
    <linearGradient id="teal" x1="198" y1="86" x2="283" y2="224" gradientUnits="userSpaceOnUse"><stop stop-color="#ADF4D7"/><stop offset="1" stop-color="#40AFA7"/></linearGradient>
    <linearGradient id="metal" x1="210" y1="88" x2="265" y2="210" gradientUnits="userSpaceOnUse"><stop stop-color="#385653"/><stop offset="1" stop-color="#142C30"/></linearGradient>
  </defs>
  <path fill="url(#sky)" d="M0 0h480v300H0z"/>
  <path fill="url(#halo)" d="M0 0h480v300H0z"/>
  <g stroke="#87BAAF" stroke-opacity=".09">
    <path d="M28 235V86a22 22 0 0 1 44 0v136M408 222V86a22 22 0 0 1 44 0v149"/>
    <path d="M18 238c46-14 65-3 101-12m242 0c36 9 55-2 101 12M0 258c49-9 79 4 111-7m258 0c32 11 62-2 111 7"/>
  </g>
  <g fill="#C3DCC7" fill-opacity=".35"><circle cx="97" cy="53" r="1"/><circle cx="386" cy="65" r="1.5"/><circle cx="366" cy="35" r="1"/><circle cx="81" cy="202" r="1.5"/><circle cx="400" cy="204" r="1"/></g>
  <circle cx="240" cy="149" r="114" stroke="#D7AC5E" stroke-opacity=".16"/>
  <circle cx="240" cy="149" r="105" fill="#102027" fill-opacity=".48" stroke="#D7AC5E" stroke-opacity=".44"/>
  <g stroke="#D7AC5E" stroke-opacity=".7" stroke-linecap="round"><path d="M240 27v9m0 226v10M118 149h9m226 0h9"/><path d="m154 63 6 6m160 160 6 6M154 235l6-6M320 69l6-6" stroke-opacity=".25"/></g>
  <g stroke-linecap="round" stroke-linejoin="round">
    <path d="M165 133h127c21 0 22-31 3-34-11-2-18 4-18 12" stroke="#58CBBB" stroke-opacity=".13" stroke-width="21"/>
    <path d="M151 150h143c28 0 29 37 5 42-12 2-22-4-23-14" stroke="url(#gold)" stroke-width="10"/>
    <path d="M171 128h115c21 0 22-31 3-34-11-2-18 4-18 12" stroke="url(#teal)" stroke-width="8"/>
    <path d="M176 174h55c15 0 19 21 4 29-7 4-15 1-18-5" stroke="url(#gold)" stroke-width="8"/>
    <path d="M148 129h5m-17 21h2m21 24h3" stroke="#EAD19A" stroke-width="7"/>
    <path d="m313 94 4-9m14 21 9-3m-34 107 5 8" stroke="#72D5C4" stroke-opacity=".8" stroke-width="3"/>
  </g>
  <path d="m189 98 4-9 4 9 9 4-9 4-4 9-4-9-9-4z" fill="#C8ECCE" fill-opacity=".7"/>
  <path d="m229 275 11-4 11 4-11 4z" fill="#D7AC5E" fill-opacity=".55"/>
</svg>
